<svg xmlns="http://www.w3.org/2000/svg" id="diagram" width="410" height="250">
  <defs>
    <clipPath id="clipPath-0">
      <rect x="5.0" y="5.0" width="400.0" height="240.0"/>
    </clipPath>
    <clipPath id="clipPath-1">
      <rect x="5.0" y="5.0" width="400.0" height="240.0"/>
    </clipPath>
  </defs>
  <g id="axes" stroke="black" stroke-width="2">
    <line id="line-0" x1="5.0" y1="125.0" x2="405.0" y2="125.0" stroke="black" stroke-width="2"/>
    <line id="line-1" x1="125.0" y1="245.0" x2="125.0" y2="5.0" stroke="black" stroke-width="2"/>
    <g id="g-0"/>
    <g id="g-1"/>
  </g>
  <line id="line-2" x1="125.0" y1="125.0" x2="200.0" y2="125.0" stroke="black" stroke-width="6" fill="none"/>
  <line id="line-3" x1="285.0" y1="125.0" x2="210.0" y2="125.0" stroke="black" stroke-width="6" fill="none"/>
  <path id="path-0" d="M 205.0 125.0 L 204.8 120.0 L 204.4 115.0 L 203.6 110.0 L 202.5 105.1 L 201.1 100.3 L 199.4 95.6 L 197.4 90.9 L 195.1 86.5 L 192.5 82.1 L 189.7 78.0 L 186.6 74.0 L 183.3 70.2 L 179.8 66.7 L 176.0 63.4 L 172.0 60.3 L 167.9 57.5 L 163.5 54.9 L 159.1 52.6 L 154.4 50.6 L 149.7 48.9 L 144.9 47.5 L 140.0 46.4 L 135.0 45.6 L 130.0 45.2 L 125.0 45.0 L 120.0 45.2 L 115.0 45.6 L 110.0 46.4 L 105.1 47.5 L 100.3 48.9 L 95.6 50.6 L 90.9 52.6 L 86.5 54.9 L 82.1 57.5 L 78.0 60.3 L 74.0 63.4 L 70.2 66.7 L 66.7 70.2 L 63.4 74.0 L 60.3 78.0 L 57.5 82.1 L 54.9 86.5 L 52.6 90.9 L 50.6 95.6 L 48.9 100.3 L 47.5 105.1 L 46.4 110.0 L 45.6 115.0 L 45.2 120.0 L 45.0 125.0 L 45.2 130.0 L 45.6 135.0 L 46.4 140.0 L 47.5 144.9 L 48.9 149.7 L 50.6 154.4 L 52.6 159.1 L 54.9 163.5 L 57.5 167.9 L 60.3 172.0 L 63.4 176.0 L 66.7 179.8 L 70.2 183.3 L 74.0 186.6 L 78.0 189.7 L 82.1 192.5 L 86.5 195.1 L 90.9 197.4 L 95.6 199.4 L 100.3 201.1 L 105.1 202.5 L 110.0 203.6 L 115.0 204.4 L 120.0 204.8 L 125.0 205.0 L 130.0 204.8 L 135.0 204.4 L 140.0 203.6 L 144.9 202.5 L 149.7 201.1 L 154.4 199.4 L 159.1 197.4 L 163.5 195.1 L 167.9 192.5 L 172.0 189.7 L 176.0 186.6 L 179.8 183.3 L 183.3 179.8 L 186.6 176.0 L 189.7 172.0 L 192.5 167.9 L 195.1 163.5 L 197.4 159.1 L 199.4 154.4 L 201.1 149.7 L 202.5 144.9 L 203.6 140.0 L 204.4 135.0 L 204.8 130.0 Z" stroke="black" stroke-width="2" fill="none"/>
  <path id="path-1" d="M 365.0 125.0 L 364.8 120.0 L 364.4 115.0 L 363.6 110.0 L 362.5 105.1 L 361.1 100.3 L 359.4 95.6 L 357.4 90.9 L 355.1 86.5 L 352.5 82.1 L 349.7 78.0 L 346.6 74.0 L 343.3 70.2 L 339.8 66.7 L 336.0 63.4 L 332.0 60.3 L 327.9 57.5 L 323.5 54.9 L 319.1 52.6 L 314.4 50.6 L 309.7 48.9 L 304.9 47.5 L 300.0 46.4 L 295.0 45.6 L 290.0 45.2 L 285.0 45.0 L 280.0 45.2 L 275.0 45.6 L 270.0 46.4 L 265.1 47.5 L 260.3 48.9 L 255.6 50.6 L 250.9 52.6 L 246.5 54.9 L 242.1 57.5 L 238.0 60.3 L 234.0 63.4 L 230.2 66.7 L 226.7 70.2 L 223.4 74.0 L 220.3 78.0 L 217.5 82.1 L 214.9 86.5 L 212.6 90.9 L 210.6 95.6 L 208.9 100.3 L 207.5 105.1 L 206.4 110.0 L 205.6 115.0 L 205.2 120.0 L 205.0 125.0 L 205.2 130.0 L 205.6 135.0 L 206.4 140.0 L 207.5 144.9 L 208.9 149.7 L 210.6 154.4 L 212.6 159.1 L 214.9 163.5 L 217.5 167.9 L 220.3 172.0 L 223.4 176.0 L 226.7 179.8 L 230.2 183.3 L 234.0 186.6 L 238.0 189.7 L 242.1 192.5 L 246.5 195.1 L 250.9 197.4 L 255.6 199.4 L 260.3 201.1 L 265.1 202.5 L 270.0 203.6 L 275.0 204.4 L 280.0 204.8 L 285.0 205.0 L 290.0 204.8 L 295.0 204.4 L 300.0 203.6 L 304.9 202.5 L 309.7 201.1 L 314.4 199.4 L 319.1 197.4 L 323.5 195.1 L 327.9 192.5 L 332.0 189.7 L 336.0 186.6 L 339.8 183.3 L 343.3 179.8 L 346.6 176.0 L 349.7 172.0 L 352.5 167.9 L 355.1 163.5 L 357.4 159.1 L 359.4 154.4 L 361.1 149.7 L 362.5 144.9 L 363.6 140.0 L 364.4 135.0 L 364.8 130.0 Z" stroke="black" stroke-width="2" fill="none"/>
</svg>
